<svg xmlns="http://www.w3.org/2000/svg" width="300" height="300" viewBox="0 0 300 300">
  <!-- Row 1 -->
  <g transform="translate(0, 0) scale(0.1)">
    <path d="M541.35 855a213.87 213.87 0 0 1-175.67 91.65c-118.24 0-214.09-95.81-214.09-214s95.85-214 214.09-214a214.17 214.17 0 0 1 205.56 154A152 152 0 1 1 541.35 855z" fill="#FFFFFF" /><path d="M557.34 828.12a212.52 212.52 0 0 0 21.31-73.47 157.85 157.85 0 0 1 227.48-49.33 152.11 152.11 0 0 1-238.46 185.23A157.24 157.24 0 0 1 557.23 834q0-2.93 0.11-5.88z" fill="#FFCCCC" /><path d="M810.2 712.55A152.19 152.19 0 0 1 637.88 930.7a157.75 157.75 0 0 1 144.71-220.56 158.79 158.79 0 0 1 27.61 2.41z" fill="#FF5252" /><path d="M238.51 904.83a213 213 0 0 1-41.85-127.12c0-118.19 95.85-214 214.09-214a213.19 213.19 0 0 1 127.17 41.83 213 213 0 0 1 41.85 127.12c0 118.19-95.85 214-214.09 214a213.19 213.19 0 0 1-127.17-41.83z" fill="#FFCCCC" /><path d="M219.56 889.07c6.5-112.35 99.7-201.45 213.73-201.45a213.39 213.39 0 0 1 146.12 57.59c-6.5 112.35-99.7 201.45-213.73 201.45a213.39 213.39 0 0 1-146.12-57.59z" fill="#FF5252" /><path d="M591 394.78q87.12 0 157.75-78.84Q678.16 237.1 591 237.1t-157.71 78.84q70.62 78.84 157.71 78.84z" fill="#89D66D" /><path d="M675.55 957.93a174.5 174.5 0 0 1-154.05-92.28l-6.5-12.19 7.92-11.34A191.89 191.89 0 0 0 549.61 679l-3.86-13.25 10-9.46a174 174 0 0 1 119.75-47.5c96.3 0 174.64 78.32 174.64 174.58s-78.29 174.56-174.59 174.56zM567.91 855.52a129.49 129.49 0 0 0 107.63 57.35c71.46 0 129.59-58.1 129.59-129.52S747 653.83 675.55 653.83a129.06 129.06 0 0 0-79 26.83 237.4 237.4 0 0 1 5.74 52 235 235 0 0 1-34.38 122.86z" fill="" /><path d="M675.55 955.88a172.46 172.46 0 0 1-152.25-91.2l36.11-19.34a131.56 131.56 0 0 0 116.14 69.58c72.58 0 131.64-59 131.64-131.57s-59.06-131.57-131.64-131.57a131.15 131.15 0 0 0-90.26 35.8l-28.09-29.81a172 172 0 0 1 118.35-46.94c95.17 0 172.6 77.4 172.6 172.53s-77.43 172.52-172.6 172.52z" fill="" /><path d="M365.68 967.14a234.52 234.52 0 1 1 165.86-68.67 233.08 233.08 0 0 1-165.86 68.67z m0-428c-106.76 0-193.61 86.81-193.61 193.51s86.85 193.51 193.61 193.51 193.61-86.81 193.61-193.51-86.85-193.5-193.61-193.5z" fill="" /><path d="M397.69 663a20.48 20.48 0 0 1-7.8-39.42C503.2 576.9 599 503.44 674.48 405.21c71.69-93.23 125-208.3 158.38-342a20.48 20.48 0 0 1 39.74 9.93C837.82 212.33 782.09 332.46 707 430.18 627 534.2 525.54 612 405.47 661.42a20.42 20.42 0 0 1-7.78 1.58z" fill="" /><path d="M591 415.26c-63.88 0-122.09-28.82-173-85.65l-12.24-13.67L418 302.28c50.92-56.84 109.12-85.66 173-85.66s122.09 28.82 173 85.66l12.24 13.67L764 329.61c-50.87 56.83-109.08 85.65-173 85.65z m-129.44-99.32c17.84 17.55 36.49 31.25 55.63 40.81a164.14 164.14 0 0 0 147.69 0c19.14-9.57 37.79-23.26 55.63-40.81-17.84-17.55-36.49-31.25-55.63-40.81a164.14 164.14 0 0 0-147.69 0c-19.13 9.57-37.79 23.26-55.63 40.81z" fill="" /><path d="M571.41 298.4h143.36a15.36 15.36 0 0 1 15.36 15.36 15.36 15.36 0 0 1-15.36 15.36H571.41A15.36 15.36 0 0 1 556 313.76a15.36 15.36 0 0 1 15.41-15.36z" fill="#015200" /><path d="M703.71 650.5a20.49 20.49 0 0 1-19.07-27.94c28-71.58 45.51-171.32 52.18-296.45a20.48 20.48 0 0 1 40.9 2.18c-6.9 129.5-25.38 233.52-54.93 309.17a20.49 20.49 0 0 1-19.08 13.04z" fill="" />
  </g>
  <g transform="translate(100, 0) scale(0.1)">
  <path d="M321.32 935.84q-94-69.1-98.59-106.46T292 696.93q-88.06-33.32-99.85-62.93t30.58-111q-53.07-120.54-30.58-167.2t149.58-79.64q25.65-62.31 63.17-82.88t129-22.48l92 51.31q151 18.59 172.69 54t-28.42 181.7q36.09 61.55 48.4 95.52t0 80.67q-24.57 69.94-48.4 81.53t-99.1 0l-71.44 113.85L493 851.87q-41.29 69.73-70.39 84t-101.29-0.03z" fill="#FFFFFF" /><path d="M278.39 699.56a128.56 128.56 0 0 0 114.44-1.09v2.33A139.9 139.9 0 0 0 505.63 838a139.91 139.91 0 1 1-227.24-138.44z" fill="#DBBFFF" /><path d="M468 905c-53.49-15.87-110.45-40.72-143.6-81.52-21.23-26.13-47.15-69.79-66.31-102.37a140.69 140.69 0 0 1 20.28-21.5 128.56 128.56 0 0 0 114.44-1.09v2.33A139.9 139.9 0 0 0 505.63 838 139.61 139.61 0 0 1 468 905z" fill="#CE87FF" /><path d="M375.29 291.45A140 140 0 0 1 614 284q0.28 4.46 0.28 9a139.32 139.32 0 0 1-11.46 55.53 151.71 151.71 0 0 0-168.79-12.21 140.32 140.32 0 0 0-58.74-44.87z" fill="#E2CDFF" /><path d="M392.83 698.47A128.41 128.41 0 0 0 460 611a152.55 152.55 0 0 0 87.65 3.38 140 140 0 0 0 123.13 109.09 139.91 139.91 0 0 1-278-22.66q0.03-1.17 0.05-2.34z" fill="#DBBFFF" /><path d="M637.55 793.4c-42.05-18.92-75.36-45.22-83.22-81-17 4.42-12.81 11.47-31.19 11.47-24.09 0-65.31 9.42-86.87 2-12.94 7.48-24.77 14.51-35.66 21.12a139.57 139.57 0 0 1-7.79-46.14v-2.33A128.41 128.41 0 0 0 460 611a152.55 152.55 0 0 0 87.65 3.38 140 140 0 0 0 123.13 109.09 139.3 139.3 0 0 1-33.23 69.93z" fill="#CE87FF" /><path d="M460 611a128.25 128.25 0 1 1-236.28-91.24A140.07 140.07 0 0 0 381 548.34 152 152 0 0 0 460 611z" fill="#DBBFFF" /><path d="M439.63 657.73a169.12 169.12 0 0 1-33.5-38.66 155.55 155.55 0 0 1-174.75-31.74 141.39 141.39 0 0 0-16.49 43.21 128.43 128.43 0 0 1 8.79-110.79A140.07 140.07 0 0 0 381 548.34 152 152 0 0 0 460 611a127.5 127.5 0 0 1-20.37 46.73z" fill="#CE87FF" /><path d="M812.07 340.1q0.43 5.5 0.44 11.12a139.62 139.62 0 0 1-57 112.67 139.29 139.29 0 0 0-71.21-19.45 140.88 140.88 0 0 0-23.65 2 140.18 140.18 0 0 0-4.13-113.49 140 140 0 0 1 155.57 7.16zM296.46 558.48a139.91 139.91 0 0 1 120.41-240.9 140.68 140.68 0 0 1 17.19 18.69 151.52 151.52 0 0 0-53 212.07 140.66 140.66 0 0 1-84.58 10.14z" fill="#E2CDFF" /><path d="M547.62 614.38a151.67 151.67 0 0 0 111.87-167.75 139.84 139.84 0 1 1-111.87 167.75z" fill="#DBBFFF" /><path d="M789.32 491.94a141.45 141.45 0 0 0-51-0.26 151.67 151.67 0 0 1-111.83 167.75 139.4 139.4 0 0 0 31.59 62.24 140 140 0 0 1-110.46-107.29 151.67 151.67 0 0 0 111.87-167.75 140.19 140.19 0 0 1 129.84 45.31z" fill="#CE87FF" /><path d="M514 616.89a152.05 152.05 0 0 1 79.72-281.57h0.85a152.05 152.05 0 0 1-79.72 281.57z" fill="#E2CDFF" /><path d="M369.5 966c-88.43 0-160.38-71.92-160.38-160.32A160.19 160.19 0 0 1 265.05 684l10.21-8.77 12.1 5.9a108.08 108.08 0 0 0 96.15-0.91l30.36-15.52-0.56 34.09v2a119.53 119.53 0 0 0 96.28 117.12l20.9 4.1-4.91 20.72A160.42 160.42 0 0 1 369.5 966z m-86.77-242.32a119.23 119.23 0 0 0-32.65 82c0 65.81 53.57 119.32 119.42 119.32a118.14 118.14 0 0 0 74.59-26.14 120.25 120.25 0 0 0 35.45-46.8 160.81 160.81 0 0 1-105-124.64 149.54 149.54 0 0 1-40 5.48 147.54 147.54 0 0 1-51.81-9.22zM611.09 381l-20.88-16.4a129.77 129.77 0 0 0-80.82-27.86A131.09 131.09 0 0 0 444.25 354l-15.56 9-10.9-14.25a119.62 119.62 0 0 0-84.58-46.49l-20.27-1.73 1.6-20.28a160.37 160.37 0 0 1 159.88-147.61c88.43 0 160.38 71.92 160.38 160.31a159.21 159.21 0 0 1-13.15 63.67z m-101.7-85.19a170.41 170.41 0 0 1 82.12 20.78 119.91 119.91 0 0 0 2.32-23.59c0-65.81-53.57-119.35-119.42-119.35a119.48 119.48 0 0 0-116.07 91.18 160.91 160.91 0 0 1 80.8 46 172.4 172.4 0 0 1 70.25-15.05z" fill="" /><path d="M532.71 861.12c-88.43 0-160.38-71.92-160.38-160.32v-2.67l0.2-12.3 11-5.6a107.27 107.27 0 0 0 56.43-73.49l4.81-22.66 21.9 7.55a132.1 132.1 0 0 0 75.83 2.92l20.59-5.35 4.53 20.8a119.49 119.49 0 0 0 105.11 93.1l21.79 2.08-3.52 21.59a160.39 160.39 0 0 1-158.29 134.35zM413.66 710.18a119.45 119.45 0 0 0 231.91 29.73 160.81 160.81 0 0 1-112.44-101.82 173.69 173.69 0 0 1-59.14-2 147.83 147.83 0 0 1-60.33 74.09z" fill="" /><path d="M334.52 732.94c-82 0-148.72-66.69-148.72-148.66a148.56 148.56 0 0 1 20.2-74.85l13.42-23 18.78 18.87a119.6 119.6 0 0 0 134.32 24.41l16.3-7.46 9.55 15.17a131.74 131.74 0 0 0 68.27 54.21l17.12 5.9-3.76 17.72a148.75 148.75 0 0 1-145.48 117.69z m-103.1-180a107.77 107.77 0 0 0 203.71 70 173.22 173.22 0 0 1-61.58-49.62 160.92 160.92 0 0 1-142.14-20.39zM756.7 488.42l-11.7-6.91a119.29 119.29 0 0 0-60.78-16.59 120.73 120.73 0 0 0-21.18 1.87l-20.94 3.74-2.94-21.07a130.28 130.28 0 0 0-49-84.86l-12.44-9.75 6.29-14.51a119.67 119.67 0 0 0-2.3-99.76l-8.23-16.81 16-9.71a160.18 160.18 0 0 1 83.07-23.16C761 190.9 833 262.82 833 351.22a160.09 160.09 0 0 1-65.37 129.16zM684.26 424A160.5 160.5 0 0 1 753 439.42a119.92 119.92 0 0 0 39-88.2c0-65.81-53.57-119.35-119.42-119.35a119.54 119.54 0 0 0-46.34 9.32 161.21 161.21 0 0 1 0.8 101.09 170.69 170.69 0 0 1 48.8 81.9q4.22-0.18 8.42-0.18z" fill="" /><path d="M322.86 581.45c-88.43 0-160.38-71.92-160.38-160.31s71.95-160.32 160.38-160.32a159.32 159.32 0 0 1 127.46 63l14.21 18.57L444.25 354a131 131 0 0 0-45.88 183.39l12.47 19.8-21.27 9.81a159.16 159.16 0 0 1-66.71 14.45z m0-279.67c-65.85 0-119.42 53.54-119.42 119.35S257 540.49 322.86 540.49a119.56 119.56 0 0 0 29-3.53A172 172 0 0 1 403 332.6a118.5 118.5 0 0 0-80.14-30.82zM684.26 744.59a160.41 160.41 0 0 1-156.65-125.82l-4.23-19.26 19.08-5a131 131 0 0 0 98-126.81 132.84 132.84 0 0 0-1.26-18.29l-2.72-19.52 19.41-3.47a161.88 161.88 0 0 1 28.37-2.42c88.43 0 160.38 71.92 160.38 160.32S772.7 744.59 684.26 744.59zM573 627.6a119.46 119.46 0 0 0 111.3 76c65.85 0 119.42-53.54 119.42-119.35s-53.61-119.33-119.46-119.33h-2.86v2.79A172 172 0 0 1 573 627.6z" fill="" /><path d="M514.83 637.38c-95.17 0-172.6-77.4-172.6-172.53s77.43-172.53 172.6-172.53 172.6 77.4 172.6 172.53S610 637.38 514.83 637.38z m0-304.1c-72.58 0-131.64 59-131.64 131.57s59.05 131.57 131.64 131.57 131.63-59 131.63-131.57-59.04-131.57-131.63-131.57zM610.59 239.56a20.49 20.49 0 0 1-18.08-30.07c21.62-40.83 44.72-72.46 68.67-94 25.75-23.18 53.33-35.67 82-37.12a20.48 20.48 0 1 1 2.07 40.91c-40 2-79.15 38.83-116.52 109.41a20.48 20.48 0 0 1-18.14 10.87z" fill="" /><path d="M373.63 197.53q-35.59-33.6-57.74-88.85 93.33-49.93 175.2-20.13t121.27 128q-8.35 4.47-16.61 8.29a135.28 135.28 0 0 0-222.12-27.36z" fill="#89D66D" /><path d="M586.53 251.75l-9-17.5A114.8 114.8 0 0 0 389 211l-14 16-15.46-14.59c-25.79-24.35-46.88-56.69-62.69-96.11l-6.83-17 16.18-8.65c67.28-36 131.84-43.17 191.87-21.32S603 138.15 631.37 209l6.83 17-16.2 8.65a349.61 349.61 0 0 1-17.65 8.82zM342.46 118.36c9.1 19.11 19.7 35.82 31.68 50a156.11 156.11 0 0 1 171.28-20.89A164.09 164.09 0 0 0 408.69 99c-21.25 2.48-43.46 9-66.23 19.36z" fill="" />
  </g>
  <g transform="translate(200, 0) scale(0.1)">
   <path d="M280.6 715c12.6 2.6 25.1-3.7 31.2-14.7h0.1c3.2-5.9 6.9-11.5 11-16.8l-0.1-0.1c3-3.7 5.3-8.2 6.3-13.3 3.4-16.2-6.6-32-22.3-35.3-12.3-2.5-24.4 3.3-30.7 13.8-4.9 6.4-9.3 13.2-13.4 20.3-2.1 3.1-3.6 6.7-4.4 10.7-3.4 16.4 6.6 32.1 22.3 35.4zM295.6 949.3c-9.2 0-18.3-4.2-24.2-12.2-24.8-33.7-39-82-39-132.6 0-14.1 1.1-28.1 3.2-41.6 2.6-16.4 17.9-27.5 34.3-25 16.4 2.6 27.5 17.9 25 34.3-1.6 10.5-2.5 21.4-2.5 32.3 0 38.1 10 73.4 27.3 97.1 9.8 13.4 6.9 32.1-6.4 41.9-5.3 3.9-11.5 5.8-17.7 5.8zM745.5 837c-12.6-2.6-25.1 3.7-31.2 14.7h-0.1c-3.2 5.9-6.9 11.5-11 16.8l0.1 0.1c-3 3.7-5.3 8.2-6.3 13.3-3.4 16.2 6.6 32 22.3 35.3 12.3 2.5 24.4-3.3 30.7-13.8 4.9-6.4 9.3-13.2 13.4-20.3 2.1-3.1 3.6-6.7 4.4-10.7 3.4-16.4-6.6-32.2-22.3-35.4zM730.5 602.7c9.2 0 18.3 4.2 24.2 12.2 24.8 33.7 39 82 39 132.6 0 14.1-1.1 28.1-3.2 41.6-2.6 16.4-17.9 27.5-34.3 25-16.4-2.6-27.5-17.9-25-34.3 1.6-10.5 2.5-21.4 2.5-32.3 0-38.1-10-73.4-27.3-97.1-9.8-13.4-6.9-32.1 6.4-41.9 5.3-3.9 11.5-5.8 17.7-5.8z" fill="#33CC99" /><path d="M835.2 255.7c2.2-5.6 3.3-11.3 3.3-17.2 0-60.9-123.8-110.3-276.6-110.3s-276.6 49.4-276.6 110.3c0 5.8 1.1 11.6 3.3 17.2h546.6z" fill="#FFB89A" /><path d="M910.2 678.5V383.8h0.5c0-4.9-0.2-9.7-0.5-14.5V355c-0.7-30.9-10.3-64.3-28-97.1-18.5-34.4-45.7-67.3-78.4-95.1C767.7 132.2 725.7 108 679 91c-51.7-18.9-108-28.4-167.3-28.4-59.3 0-115.5 9.6-167.2 28.5-46.7 17.1-88.6 41.2-124.7 71.9-32.7 27.8-59.8 60.7-78.4 95.1-18.3 34-28.1 68.7-28.1 100.6 0 2.3 0.1 4.7 0.2 7.1v4.3c-0.3 4.6-0.5 9.3-0.5 13.9v30h0.5v417.9c1 70.8 59.2 128.5 130.3 128.5 71.7 0 130.3-58.7 130.3-130.3V706.4c0-71.7-58.7-130.3-130.3-130.3-25.9 0-50 7.6-70.3 20.8v-225c3.1-38 21.2-73.7 51.7-101.6 33.7-30.8 79.6-48.5 125.9-48.5h326.4c91 0 165.8 66 172.6 149.5v223.6c-19.7-12-42.7-18.8-67.3-18.8-71.7 0-130.3 58.7-130.3 130.3v123.5c0 71.7 58.7 130.3 130.3 130.3 71.7 0 130.3-58.7 130.3-130.3V706.4c0.1-9.6-0.9-18.9-2.9-27.9z m-736.7 27.9c0-18.6 7.4-36.3 20.7-49.6 13.4-13.4 31-20.7 49.6-20.7s36.3 7.4 49.6 20.7c13.4 13.4 20.7 31 20.7 49.6v123.5c0 18.6-7.4 36.3-20.7 49.6-13.4 13.4-31 20.7-49.6 20.7s-36.3-7.4-49.6-20.7c-13.4-13.4-20.7-31-20.7-49.6V706.4z m177.6-544.6c-7.5 0-15 0.3-22.4 1 11.7-5.7 23.8-10.9 36.3-15.5 45.1-16.5 94.4-24.8 146.7-24.8 52.2 0 101.6 8.3 146.7 24.8 12.2 4.5 24 9.5 35.4 15-5.4-0.4-10.8-0.5-16.2-0.5H351.1z m481.4 717.7c-13.4 13.4-31 20.7-49.6 20.7s-36.3-7.4-49.6-20.7c-13.4-13.4-20.7-31-20.7-49.6V706.4c0-18.6 7.4-36.3 20.7-49.6 13.4-13.4 31-20.7 49.6-20.7s36.3 7.4 49.6 20.7c8.3 8.3 14.3 18.3 17.7 29.2v145.7h3c-0.5 18-7.8 34.9-20.7 47.8z" fill="#45484C" />
  </g>

  <!-- Row 2 -->
  <g transform="translate(0, 100) scale(0.1)">
   <path d="M248.4 889.9l53.9-434.3s118.8 60.8 166.9 87.5 147.4 71.1 147.4 71.1L248.4 889.9z" fill="#F2F5FB" /><path d="M554 589.3L256.7 811.9l-10.1 81 368.3-275.7c0 0.1-27.7-12.3-60.9-27.9z" fill="#DEEAF4" /><path d="M292.5 441.6s-56.1-34.2-39.2-63.5 37.1-45.5 37.1-45.5l47.3-35.4 38.7-46.7 31.2-9 62.1-65.5 98.9-11.2 68.5 3.7 66.1-53.4 50.5 66.8 15.4 85.7-7 23.8 22.5 67.5-30.3 52.8-9.3 8.5 27.7 62.3-24.1 41.9-7.7 13.4-10.9 59.5-31.1 24.4s-118.6-9.1-242.1-77.8-164.3-102.3-164.3-102.3z" fill="#95C751" /><path d="M747.2 548.5l7.7-13.4 24.1-41.9-27.7-62.3 9.3-8.5 30.3-52.8-22.5-67.5 7-23.8-15.4-85.7-50.5-66.8-34.6 27.9 12.3 68.2-6.6 22.6 21.4 64.1-28.8 50.1-8.9 8 26.3 59.1-22.8 39.8-7.3 12.7-10.3 56.7-29.6 23.2s-112.6-8.6-229.9-73.8c-69.6-38.7-111.3-65.6-133.9-81.1 2.8 25.1 42.1 49.1 42.1 49.1s40.8 33.7 164.3 102.3 242.1 77.8 242.1 77.8l31.1-24.4 10.8-59.6z" fill="#6EB748" /><path d="M756.5 537.7c9.5-6.8 17.3-15.8 22.5-26.9 10.6-22.7 8-49.5-6.7-69.7l-11-15.1c7-3.7 13-8.2 17.6-13.7 35.6-42.6 11.4-111.9 2-134.5 43.1-86.9-67-166.5-71.9-169.9-7.4-5.3-17.4-3.5-22.6 3.8-0.4 0.5-38.8 52.9-106.3 40.4-58.9-10.9-116.8 12.2-148.5 35.3-17.3 12.6-29.5 26.8-35.7 40.9-2.9 0-5.4 0.1-7.5 0.3-29.7 3.1-56.6 24.4-64 50.5-1 3.4-1.4 6.7-1.7 10.1-16.6 2.2-31.6 12.4-39.1 28.6-0.6 1.3-0.9 2.7-1.4 4-15.6 2.4-29.7 11.7-37.8 25.9-19.1 33.3-8.6 75.4 23.9 95.8l9.6 6-54.3 452c-0.8 6.5 2.4 12.8 8 16 5.7 3.3 12.7 2.8 17.9-1.1l385.3-291.5c14.1 3 28.4 5.6 42.8 7.7 29.5 4.2 58.2-9.8 73.1-35.7 10.4-18.4 12.3-39.9 5.8-59.2z m-6.9-40.7c-4.4 9.5-12.6 16.1-22.1 19.2-1.2 0.4-2.5 0.8-3.7 1-3 0.6-6.1 1.1-9.3 0.9-83-4.6-162.6-26.1-236.5-64.1l-149-76.4c-0.9-0.5-1.8-1.1-2.6-1.6-1.3-0.8-2.5-1.6-3.6-2.5-0.5-0.4-1-0.8-1.5-1.3-1.1-1-2-2-3-3.1-0.4-0.5-0.9-1-1.3-1.6-0.8-1-1.4-2-2-3.1-0.4-0.8-0.9-1.5-1.3-2.3-0.2-0.5-0.4-0.9-0.6-1.4-2.8-6.3-3.8-13.4-2.5-20.6v-0.5c0.5-2.8 1.3-5.7 2.6-8.4 3.4-7.4 11.3-11.3 19-10.2 0.1 0.1 0.2 0.1 0.2 0.2 2.8 3.6 6 7 9.9 10 3.1 2.4 6.8 4.9 10.6 7.5l2.7 1.8c3.9 2.5 8 5 12.5 7.6 0.3 0.2 0.5 0.3 0.7 0.5l2.1 1.2c4 2.3 8.2 4.6 12.5 6.9 1.1 0.6 2.1 1.2 3.3 1.7 5 2.6 10.1 5.2 15.4 7.8 1.5 0.7 3 1.4 4.5 2.2 5.1 2.5 10.2 4.9 15.4 7.3 0.8 0.4 1.5 0.7 2.3 1.1 5.3 2.4 10.7 4.8 16.1 7.2 1.5 0.6 2.9 1.3 4.4 1.9 5.5 2.4 11.1 4.7 16.5 7 1.1 0.5 2.1 0.9 3.2 1.3 4.9 2 9.7 3.9 14.4 5.8l3 1.2c5.2 2 10.2 3.9 15.1 5.7 1.1 0.4 2.1 0.8 3.1 1.1 4.9 1.8 9.6 3.4 13.9 4.9 1 0.3 2.3 0.7 3.8 1.2 22.5 7.1 65.2 16.7 110 22 29.5 3.6 60.3 5.1 87 2.3 0.7-0.1 1.4-0.2 2-0.2 3-0.4 6-0.8 8.9-1.2 1-0.2 2-0.2 2.9-0.4l17.3 23.8c7.9 10.4 9.2 24.6 3.7 36.6zM450.8 213.5c26.5-19.3 74.6-38.6 123.4-29.6 64.5 12 108.2-21.2 127.5-40.6 24.6 20.9 78.1 74.8 47.4 125.5-17.7 29.2-80.2 43.4-176.1 40.1-7.2-0.3-14.4-0.9-21.5-1.9-2.5-0.3-4.9-1-7.4-1.4-4.6-0.8-9.1-1.6-13.6-2.7-2.9-0.7-5.7-1.7-8.6-2.5-3.9-1.1-7.9-2.2-11.8-3.6-3-1.1-5.9-2.4-8.8-3.6-3.6-1.5-7.3-2.9-10.8-4.6-1.9-0.9-3.8-2-5.7-3 14.7-10.4 38.2-22.8 67.3-23.6 60-1.6 99-16.8 100.6-17.5 8.3-3.3 12.4-12.7 9.1-21.1-3.3-8.4-12.7-12.4-21.1-9.2-0.4 0.1-35.7 13.7-89.5 15.2-45.5 1.2-79.5 24-96 37.8-0.3-0.2-0.7-0.4-1-0.7-2.6-2-5.2-4.1-7.7-6.3-2.9-2.4-5.8-4.9-8.6-7.5-2.4-2.3-4.8-4.7-7.1-7.1-1.7-1.7-3.3-3.5-4.9-5.3 3.3-7 11-16.7 24.9-26.8z m-59.1 47.2c1.1-0.1 3.4-0.2 8.1 0 1.4 1.5 2.9 2.9 4.3 4.3 3.1 3.4 6.3 6.6 9.6 9.8 2.3 2.2 4.7 4.3 7 6.5 3.4 3 6.9 5.9 10.5 8.7 2.4 1.9 4.9 3.8 7.4 5.7 1.9 1.4 3.8 2.8 5.8 4.1 0.2 0.2 0.3 0.6 0.6 0.8 0.9 0.8 1.9 1.6 2.9 2.1 0.9 0.5 1.8 0.7 2.7 1 2.4 1.5 4.7 3.1 7.1 4.5 0.7 0.4 1.3 0.9 2 1.2 1.8 1 3.7 1.8 5.5 2.7 5.6 3 11.3 5.9 17.1 8.5 3 1.3 6 2.5 9 3.7 5.5 2.2 11.1 4.2 16.8 5.9 3.1 1 6.3 2 9.5 2.8 6 1.6 12.2 2.9 18.4 4.1 2.8 0.5 5.6 1.2 8.5 1.6 9 1.4 18.2 2.3 27.4 2.6 10 0.4 19.5 0.5 28.8 0.4h5.8c8.9-0.1 17.6-0.3 25.9-0.8 1.4-0.1 2.8-0.2 4.1-0.3 7.5-0.5 14.8-1.1 21.8-1.8 1.2-0.1 2.4-0.2 3.6-0.4 7.5-0.9 14.6-1.9 21.4-3.2 1.5-0.3 2.9-0.5 4.3-0.8 6.8-1.3 13.4-2.8 19.5-4.4 0.2-0.1 0.4-0.1 0.6-0.2 6-1.7 11.5-3.5 16.8-5.5 1.1-0.4 2.2-0.8 3.2-1.2 5.2-2.1 10.1-4.3 14.6-6.7 0.8-0.4 1.5-0.9 2.2-1.3 4.1-2.3 8-4.8 11.5-7.4 0.3-0.3 0.8-0.5 1.1-0.7 8.2 26.1 14.2 63.1-3.3 84-4.1 4.9-11.5 8.5-20.9 11-0.5 0.1-1 0-1.4 0.1-49.9 12.8-150.4-3.9-198-17.7-3.2-1-6.5-1.9-9.4-2.9-45.8-15.3-131.9-52.7-162.2-76.3-2.3-1.8-3.9-3.7-5.1-5.9-2-3.5-2.6-7.4-1.3-11.9 3.5-11.4 18-24.7 36.2-26.7zM260.5 867.1l47.9-398.8 111 69.6c7.4 4.6 14.8 9.1 22.3 13.4 5.1 2.9 10.3 5.6 15.5 8.4 1.9 1 3.8 2.1 5.7 3.1 41.9 22.1 85.7 39.4 131.2 52L260.5 867.1z m421.7-267c-16-2.3-31.8-5.3-47.4-8.8-0.1 0-0.1-0.1-0.2-0.1-42.6-9.4-83.7-23.1-122.9-40.8-2.8-1.3-5.6-2.5-8.4-3.9-5.3-2.5-10.6-5-15.8-7.7-4.7-2.4-9.3-4.8-13.9-7.3-3.8-2-7.6-4-11.4-6.1-8.6-4.9-17.2-9.9-25.7-15.2L303.8 427l-18.3-11.5a38.62 38.62 0 0 1-13-52.1c1.5-2.5 3.4-4.7 5.7-6.3 0.8 4.6 2 9 3.7 13.3 0.5 1.3 1 2.6 1.6 3.9 1 2.1 2 4.2 3.2 6.3 1.2 2.1 2.5 4.1 3.9 6 1 1.3 2 2.5 3.1 3.8 1.7 1.9 3.4 3.8 5.3 5.5l2.7 2.4c2.5 2.1 5.3 4 8.1 5.7 0.5 0.3 0.8 0.6 1.3 0.9 1 0.5 1.9 1.1 2.9 1.6l149 76.4c78.1 40.1 162 62.8 249.6 67.6 4.3 0.2 8.6 0 12.7-0.6h1.1c2.8 10.1 1.5 21.1-3.9 30.5-8.2 14.3-24 22-40.3 19.7z" fill="#004364" /><path d="M347.7 530.2m-18.8 0a18.8 18.8 0 1 0 37.6 0 18.8 18.8 0 1 0-37.6 0Z" fill="#004364" /><path d="M348.6 599.2c-9-5.2-20.5-2.1-25.7 6.9-5.2 9-2.1 20.5 6.9 25.7 9 5.2 20.5 2.1 25.7-6.9 5.2-9 2.1-20.5-6.9-25.7z" fill="#004364" /><path d="M508.1 622.3m-18.8 0a18.8 18.8 0 1 0 37.6 0 18.8 18.8 0 1 0-37.6 0Z" fill="#004364" /><path d="M430.2 689.4c9 5.2 20.5 2.1 25.7-6.9 5.2-9 2.1-20.5-6.9-25.7-9-5.2-20.5-2.1-25.7 6.9-5.2 9-2.1 20.5 6.9 25.7z" fill="#004364" /><path d="M419.5 591.9m-18.8 0a18.8 18.8 0 1 0 37.6 0 18.8 18.8 0 1 0-37.6 0Z" fill="#004364" /><path d="M364.2 688.1m-18.8 0a18.8 18.8 0 1 0 37.6 0 18.8 18.8 0 1 0-37.6 0Z" fill="#004364" /><path d="M323.6 758.9m-18.8 0a18.8 18.8 0 1 0 37.6 0 18.8 18.8 0 1 0-37.6 0Z" fill="#004364" />
  </g>
  <g transform="translate(100, 100) scale(0.1)">
    <path d="M951 732.5c-13.8 0-20.7-9.8-25.7-17-5.1-7.3-7.7-10.2-12.7-10.2s-7.5 3-12.7 10.2c-5.1 7.2-12 17-25.7 17-13.8 0-20.7-9.8-25.7-17-5.1-7.3-7.7-10.2-12.7-10.2s-7.5 3-12.7 10.2c-5.1 7.2-12 17-25.7 17-13.8 0-20.7-9.8-25.7-17-5.1-7.3-7.7-10.2-12.7-10.2-4.4 0-8-3.6-8-8s3.6-8 8-8c13.8 0 20.7 9.8 25.7 17 5.1 7.3 7.7 10.2 12.7 10.2 5 0 7.5-3 12.7-10.2 5.1-7.2 12-17 25.7-17s20.7 9.8 25.7 17c5.1 7.3 7.7 10.2 12.7 10.2 5 0 7.5-3 12.7-10.2 5.1-7.2 12-17 25.7-17s20.7 9.8 25.7 17c5.1 7.3 7.7 10.2 12.7 10.2 4.4 0 8 3.6 8 8s-3.6 8-8 8zM951 682.5c-13.8 0-20.7-9.8-25.7-17-5.1-7.3-7.7-10.2-12.7-10.2s-7.5 3-12.7 10.2c-5.1 7.2-12 17-25.7 17-13.8 0-20.7-9.8-25.7-17-5.1-7.3-7.7-10.2-12.7-10.2s-7.5 3-12.7 10.2c-5.1 7.2-12 17-25.7 17-13.8 0-20.7-9.8-25.7-17-5.1-7.3-7.7-10.2-12.7-10.2-4.4 0-8-3.6-8-8s3.6-8 8-8c13.8 0 20.7 9.8 25.7 17 5.1 7.3 7.7 10.2 12.7 10.2 5 0 7.5-3 12.7-10.2 5.1-7.2 12-17 25.7-17s20.7 9.8 25.7 17c5.1 7.3 7.7 10.2 12.7 10.2 5 0 7.5-3 12.7-10.2 5.1-7.2 12-17 25.7-17s20.7 9.8 25.7 17c5.1 7.3 7.7 10.2 12.7 10.2 4.4 0 8 3.6 8 8s-3.6 8-8 8zM262 283.4c-13.8 0-20.7-9.8-25.7-17-5.1-7.3-7.7-10.2-12.7-10.2s-7.5 3-12.7 10.2c-5.1 7.2-12 17-25.7 17-13.8 0-20.7-9.8-25.7-17-5.1-7.3-7.7-10.2-12.7-10.2s-7.5 3-12.7 10.2c-5.1 7.2-12 17-25.7 17-13.8 0-20.7-9.8-25.7-17-5.1-7.3-7.7-10.2-12.7-10.2-4.4 0-8-3.6-8-8s3.6-8 8-8c13.8 0 20.7 9.8 25.7 17 5.1 7.3 7.7 10.2 12.7 10.2 5 0 7.5-3 12.7-10.2 5.1-7.2 12-17 25.7-17s20.7 9.8 25.7 17c5.1 7.3 7.7 10.2 12.7 10.2 5 0 7.5-3 12.7-10.2 5.1-7.2 12-17 25.7-17s20.7 9.8 25.7 17c5.1 7.3 7.7 10.2 12.7 10.2 4.4 0 8 3.6 8 8s-3.6 8-8 8zM262 233.4c-13.8 0-20.7-9.8-25.7-17-5.1-7.3-7.7-10.2-12.7-10.2s-7.5 3-12.7 10.2c-5.1 7.2-12 17-25.7 17-13.8 0-20.7-9.8-25.7-17-5.1-7.3-7.7-10.2-12.7-10.2s-7.5 3-12.7 10.2c-5.1 7.2-12 17-25.7 17-13.8 0-20.7-9.8-25.7-17-5.1-7.3-7.7-10.2-12.7-10.2-4.4 0-8-3.6-8-8s3.6-8 8-8c13.8 0 20.7 9.8 25.7 17 5.1 7.3 7.7 10.2 12.7 10.2 5 0 7.5-3 12.7-10.2 5.1-7.2 12-17 25.7-17s20.7 9.8 25.7 17c5.1 7.3 7.7 10.2 12.7 10.2 5 0 7.5-3 12.7-10.2 5.1-7.2 12-17 25.7-17s20.7 9.8 25.7 17c5.1 7.3 7.7 10.2 12.7 10.2 4.4 0 8 3.6 8 8s-3.6 8-8 8z" fill="#9A2D2F"/>

<path d="M352 102.3m-32 0a32 32 0 1 0 64 0 32 32 0 1 0-64 0Z" fill="#FFEB4D"/>

<path d="M352 142.3c-22.1 0-40-17.9-40-40s17.9-40 40-40 40 17.9 40 40-17.9 40-40 40z m0-64c-13.2 0-24 10.8-24 24s10.8 24 24 24 24-10.8 24-24-10.8-24-24-24z" fill="#9A2D2F"/>

<path d="M698 277.3m-106 0a106 106 0 1 0 212 0 106 106 0 1 0-212 0Z" fill="#C0FCD0"/>

<path d="M793 383.3m-106 0a106 106 0 1 0 212 0 106 106 0 1 0-212 0Z" fill="#FFACC2"/>

<path d="M793.3 285c-39 0-72.7 22.9-88.5 55.9 4 1.4 13.9-11.4 36.3-9.5 15.2 1.2 18.3-17.7 30-22.2 8.8-3.4 19.3 4.5 32.9 1.8 11.1-2.2 24.6-19.2 9.9-23.6-6.6-1.6-13.5-2.4-20.6-2.4z" fill="#FFFFFF"/>

<path d="M611 383.3m-106 0a106 106 0 1 0 212 0 106 106 0 1 0-212 0Z" fill="#FFEB4D"/>

<path d="M604.4 248.6c0 6.8 16.7-22.2 20.7-19.7s2.1 23.2 11.2 24c10 0.9 17.7-7.9 22.5-17.5 5.8-11.5 6-26.8 19.5-29 11.9-2 15.9 9.8 26.5 13 12.5 3.8 27.5-1.4 33.9-8.2 2.9-3.1 10.4-10.2 1.5-21.8-12.8-6.1-27.1-9.5-42.2-9.5-43.9-0.2-81.1 28.8-93.6 68.7zM611.3 285c-37 0-69.3 20.6-86 51-5 8.4-0.9 14.9 5.3 12.4 17-6.7 20.3-24.7 41.3-27.7 10.9-1.6 56 26.7 77-0.3 12.9-16.6 40.7 1.7 28.2-9.9-17.3-15.8-40.4-25.5-65.8-25.5z" fill="#FFFFFF"/>

<path d="M491 385.9c0 114.3 92.7 206.9 207 206.9s207-92.6 207-206.9v-0.1H491v0.1z" fill="#DAE5FF"/>

<path d="M873.9 478.8c-14.8 26-24.3 20.3-36 30.8-29.1 26.3-58 15.2-88.9 22.2-29.3 6.7-38.7 52.6-86.3 42.9-27.9-5.7-51.3-10.6-50.9-9.6 26.1 12.6 55.4 19.7 86.2 19.7 76.1-0.1 142.4-43.1 175.9-106z" fill="#FFFFFF"/>

<path d="M139 661.3h472v288H139z" fill="#FFE0B6"/>

<path d="M611 661.3H139l335.6-70z" fill="#FFACC2"/>

<path d="M139 757.3h472v96H139z" fill="#FFD7F5"/>

<path d="M386.3 546.2s21.8-9.8 39.1 4c13.1 10.5 19.7 30.6 14.8 56.8-5.3 28.7-36.7 30.7-46.7 26.7s-0.9-6.8-16.3-0.7c-15.3 6.1-55.2-12.5-48.6-49.5 8.1-44.7 49.7-45.3 57.7-37.3z" fill="#FFACC2"/>

<path d="M912 941.8H706V600.7c54.4-2 105.3-24.1 144-62.8 40.6-40.6 63-94.5 63-151.9v-0.1c0-3.8-2.6-6.9-6.1-7.8-2.5-54.1-42.8-98.5-95.1-107.2-3.3-59.9-53.1-107.6-113.8-107.6-61.3 0-111.4 48.6-113.9 109.2-48.2 11.7-84.5 54.1-87 105.3H491c-4.4 0-7.9 3.5-8 7.9v0.2c0 57.4 22.4 111.4 63 151.9 38.7 38.7 89.6 60.8 144 62.8v341.2h-71V661.3c0-0.5-0.1-1-0.2-1.5v-0.2c0-0.2-0.1-0.3-0.1-0.5 0-0.1-0.1-0.2-0.1-0.3 0-0.1-0.1-0.3-0.2-0.4 0-0.1-0.1-0.2-0.1-0.3-0.1-0.2-0.1-0.3-0.2-0.4 0-0.1-0.1-0.1-0.1-0.2-0.2-0.4-0.5-0.8-0.8-1.2 0 0 0-0.1-0.1-0.1-0.1-0.2-0.3-0.3-0.4-0.5l-0.1-0.1-0.4-0.4c-0.1 0-0.1-0.1-0.2-0.1-0.1-0.1-0.3-0.2-0.4-0.3-0.1 0-0.1-0.1-0.2-0.1-0.1-0.1-0.3-0.2-0.4-0.2-0.1 0-0.2-0.1-0.3-0.1h-0.1l-136.5-70c-1.6-0.8-3.5-1.1-5.3-0.7l-22.9 4.8c-0.5-18.7-7.2-34.2-19.5-43.9-12.5-10-26.7-10-36.2-8.3 1.4-33.7 6.2-103.3 16-122.9 14.7-29.5 37.3-21.8 39.8-20.8 4.1 1.6 8.7-0.3 10.4-4.4 1.7-4.1-0.3-8.8-4.4-10.4-1-0.4-10.2-4-22.1-2.2-11.1 1.6-26.8 8.3-37.9 30.7-12.3 24.7-16.5 102.1-17.6 129.1-6.3-0.9-13.6-0.3-20.7 1.9-11.3 3.6-31.2 14.2-36.8 45.5-2 11.3-0.3 22.2 4.6 31.7l-188 39.2c-0.5 0.1-1 0.3-1.5 0.4-0.1 0.1-0.3 0.1-0.4 0.2-0.1 0-0.2 0.1-0.3 0.1-0.1 0.1-0.2 0.1-0.3 0.2-0.1 0.1-0.2 0.1-0.3 0.2-0.1 0.1-0.2 0.1-0.3 0.2-0.1 0.1-0.2 0.2-0.3 0.2-0.1 0.1-0.2 0.2-0.3 0.2l-0.3 0.3-0.3 0.3c-0.1 0.1-0.2 0.2-0.2 0.3l-0.3 0.3c-0.1 0.1-0.1 0.2-0.2 0.3-0.1 0.1-0.2 0.2-0.2 0.4-0.1 0.1-0.1 0.2-0.2 0.3-0.1 0.1-0.1 0.3-0.2 0.4 0 0.1-0.1 0.2-0.1 0.3-0.1 0.1-0.1 0.3-0.2 0.4 0 0.1-0.1 0.2-0.1 0.3 0 0.1-0.1 0.3-0.1 0.4 0 0.1-0.1 0.2-0.1 0.3 0 0.1-0.1 0.3-0.1 0.4 0 0.1 0 0.2-0.1 0.4 0 0.1 0 0.3-0.1 0.4v281.2H98c-4.4 0-8 3.6-8 8s3.6 8 8 8h814c4.4 0 8-3.6 8-8s-3.6-8.3-8-8.3zM336.6 585.4c3.7-20.8 15.2-29.2 24.1-32.5 9.9-3.7 18.3-1.9 20-0.6 2.4 2.3 5.9 3 8.9 1.6 0.2-0.1 17.5-7.7 30.9 3 8.8 7 13.5 19.5 13.4 34.7 0 4.6-0.5 9.4-1.4 14.4-0.1 0.8-0.3 1.6-0.5 2.3-1.8 6.9-5.8 12-11.8 15.4-9.1 5-20 4.4-23.5 3-1.8-0.7-2.2-1.1-2.4-1.4-2.2-2.5-4.5-3.4-6.9-3.4-2.8 0-5.7 1.2-9 2.5-1.1 0.4-2.4 1-3.9 1.6-2.9 1.2-9.2 0.6-16-2.4-3.2-1.4-6.5-3.3-9.6-5.9-2.3-1.9-4.7-4.2-6.7-7.1-4.5-5.8-7.6-14.2-5.6-25.2z m-0.2 42.9c0.7 0.7 1.5 1.3 2.2 1.9 13 10.6 30.5 15.1 41.7 10.7 1.6-0.6 2.9-1.2 4-1.6 0.4-0.2 0.8-0.3 1.1-0.5 1.3 0.9 3 1.8 5.2 2.7 3.4 1.4 8 2.1 13.1 2.1 7.6 0 16.4-1.8 24.1-6 11-6 18-16 20.4-28.8 0.3-1.4 0.5-2.8 0.7-4.1l24.5-5.1 104.5 53.6H216.5l119.9-24.9z m-189.4 41h456v80H147v-80z m0 96h456v80H147v-80z m0 96h456v80H147v-80z m743.8-483.5H695.2c0-0.8 0.1-1.7 0.2-2.5 0.8-9.9 3.1-19.4 6.7-28.3 2.5-6.3 5.6-12.2 9.3-17.7 17.6-26.4 47.6-43.9 81.7-43.9h2.7c5.4 0.1 10.7 0.7 15.9 1.7 43.3 8.4 76.6 45.5 79.1 90.7zM698 179.3c51.4 0 93.6 39.7 97.7 90H793c-37.1 0-70.2 17.8-91 45.4-20.8-27.6-53.9-45.4-91-45.4-3.6 0-7.2 0.2-10.7 0.5 3.8-50.5 46.2-90.5 97.7-90.5zM584.6 288.9c5.1-1.4 10.4-2.5 15.8-3 3.5-0.4 7-0.6 10.6-0.6 34.1 0 64.1 17.5 81.7 43.9-7.3 13.4-11.9 28.4-13.3 44.3-0.1 1.4-0.2 2.8-0.3 4.3h-166c2.4-42.4 32-77.8 71.5-88.9z m108.8 295.9c-105-2.4-190.2-86.4-194.3-190.9h397.7c-4.1 104.5-89.3 188.6-194.3 190.9-1.2-0.9-7.8-0.9-9.1 0z" fill="#9A2D2F"/>

<path d="M358.7 566s4.3-7.9 9.7-6.7c5.3 1.2 4.3 4.8 3.1 9.1-1.1 4-5.3 12.6-10.2 10.9-4.2-1.5-5.2-7.8-2.6-13.3z" fill="#FFFFFF"/>
  </g>
  <g transform="translate(200, 100) scale(0.1)">
<path d="M474.9 489.3m-140.3 0a140.3 140.3 0 1 0 280.6 0 140.3 140.3 0 1 0-280.6 0Z" fill="#FFB89A" /><path d="M582.8 465.5c-13.3 0-24.6 8.7-28.5 20.7h-0.1c-2 6.4-4.6 12.7-7.7 18.7l0.2 0.1c-2.3 4.2-3.6 9.1-3.6 14.3 0 16.6 13.4 30 30 30 13 0 24-8.2 28.2-19.8 3.6-7.3 6.7-14.8 9.3-22.6 1.4-3.5 2.2-7.3 2.2-11.4 0-16.5-13.4-30-30-30z" fill="#33CC99" /><path d="M512 552.5c-6.8 0-13 2.3-18.1 6.1-17.9 9.6-38 14.6-58.8 14.6-33.4 0-64.8-13-88.4-36.6-23.6-23.6-36.6-55-36.6-88.4s13-64.8 36.6-88.4c23.6-23.6 55-36.6 88.4-36.6s64.8 13 88.4 36.6c15.6 15.6 26.6 34.7 32.2 55.4v0.2h0.1c2.9 13.5 14.9 23.7 29.3 23.7 16.6 0 30-13.4 30-30 0-3.5-0.6-6.8-1.7-9.9-21.5-78.4-93.2-136-178.4-136-102.2 0-185 82.8-185 185s82.8 185 185 185c33.6 0 65-8.9 92.1-24.6l-0.1-0.2c8.9-5.2 14.9-14.9 14.9-25.9 0.1-16.6-13.3-30-29.9-30z" fill="#33CC99" /><path d="M435.1 122.6c42.2 0 83.1 8.3 121.6 24.5 37.2 15.7 70.6 38.3 99.4 67s51.3 62.1 67 99.4c16.3 38.5 24.5 79.4 24.5 121.6 0 42.2-8.3 83.1-24.5 121.6-15.7 37.2-38.3 70.6-67 99.4-28.7 28.7-62.1 51.3-99.4 67-38.5 16.3-79.4 24.5-121.6 24.5s-83.1-8.3-121.6-24.5c-37.2-15.7-70.6-38.3-99.3-67-28.7-28.7-51.3-62.1-67-99.3-16.3-38.5-24.5-79.4-24.5-121.6s8.3-83.1 24.5-121.6c15.7-37.2 38.3-70.6 67-99.4 28.7-28.7 62.1-51.3 99.4-67 38.4-16.3 79.3-24.6 121.5-24.6m0-60c-205.7 0-372.5 166.8-372.5 372.5s166.8 372.5 372.5 372.5 372.5-166.8 372.5-372.5S640.8 62.6 435.1 62.6z" fill="#45484C" /><path d="M906.7 949.4L671.8 714.5c-11.7-11.7-11.7-30.8 0-42.4 11.7-11.7 30.8-11.7 42.4 0L949.1 907c11.7 11.7 11.7 30.8 0 42.4-11.6 11.6-30.7 11.6-42.4 0z" fill="#45484C" />
  </g>

  <!-- Row 3 -->
  <g transform="translate(0, 200) scale(0.1)">
   <path d="M225.1 251.9h592.7c14.2 0 25.8 11.5 25.8 25.8V690c0 14.2-11.5 25.8-25.8 25.8H225.1c-14.2 0-25.8-11.5-25.8-25.8V277.6c0-14.2 11.6-25.7 25.8-25.7z" fill="#FFFFFF" /><path d="M817.9 741.5H225.1c-28.4 0-51.5-23.1-51.5-51.5V277.6c0-28.4 23.1-51.5 51.5-51.5h592.7c28.4 0 51.5 23.1 51.5 51.5V690c0.1 28.4-23 51.5-51.4 51.5zM225.1 277.6V690h592.7V277.6H225.1z" fill="#2F2F33" /><path d="M379.7 544.1c-6 0-12.1-2.1-17-6.4-10.7-9.4-11.7-25.7-2.3-36.4l92.2-104.8c4.8-5.5 11.8-8.7 19.1-8.8 7.2 0.3 14.3 3 19.3 8.3l70.9 77.2L659.2 362c9.4-10.7 25.7-11.8 36.4-2.4s11.8 25.7 2.4 36.4L581.6 528.8c-4.8 5.5-11.8 8.7-19.1 8.8-7.1 0.1-14.3-2.9-19.3-8.3L472.3 452l-73.2 83.3c-5.1 5.8-12.2 8.8-19.4 8.8z" fill="#333333" /><path d="M225.1 638.4h592.7v51.5H225.1z" fill="#F4CE26" /><path d="M212.2 586.9h631.4v51.5H212.2z" fill="#303033" /><path d="M276.7 780.2h476.8c14.2 0 25.8 11.5 25.8 25.8 0 14.2-11.5 25.8-25.8 25.8H276.7c-14.2 0-25.8-11.5-25.8-25.8s11.5-25.8 25.8-25.8z" fill="#2F2F33" /><path d="M748.9 831.7H289.1L349.9 690h358.6l40.4 141.7z m-381.6-51.5h313.3l-11-38.7H383.8l-16.5 38.7z" fill="#2F2F33" />
  </g>
  <g transform="translate(100, 200) scale(0.1)">
  <path d="M683.49 271.58C799.57 294 887.23 396 887.23 518.44c0 108.17-68.4 200.38-164.36 235.86A251.85 251.85 0 0 1 486.7 918.44h-22.89C324.76 918.44 212 805.87 212 667a252.25 252.25 0 0 1 5-50.26A210.63 210.63 0 0 1 154.82 467c0-103.93 75.08-190.34 174-208.09a189 189 0 0 1 354.64 12.66z" fill="#FFFFFF" /><path d="M472 918.43c-86.81-39.79-147.09-127.27-147.09-228.78a252.11 252.11 0 0 1 5-50.3 210.66 210.66 0 0 1-62.41-149.89c0-104 75.27-190.52 174.47-208.29a189.37 189.37 0 0 1 163.3-117.35 189.43 189.43 0 0 1 89 107.15C810.62 293.38 898.5 395.49 898.5 518.06c0 108.27-68.57 200.57-164.77 236.08A252.47 252.47 0 0 1 497 918.44h-25z" fill="#FFF9F9" /><path d="M424 913.49c63.36-47.67 126.25-119.07 126.25-223.84a252.15 252.15 0 0 1 5-50.3 210.66 210.66 0 0 1-62.41-149.88c0-104 75.27-190.52 174.47-208.29a188.05 188.05 0 0 1 17.69-33.3 187.17 187.17 0 0 1 9.25 23.12C810.62 293.38 898.5 395.49 898.5 518.06c0 108.27-68.57 200.57-164.77 236.08A252.47 252.47 0 0 1 497 918.44h-23a254.3 254.3 0 0 1-50-4.95z" fill="#FFD0BB" /><path d="M357.64 524.24a157.75 157.68 0 1 0 315.5 0 157.75 157.68 0 1 0-315.5 0Z" fill="#FFFFFF" /><path d="M597.93 389.83a157.7 157.7 0 0 1-48.09 288.32A146.43 146.43 0 0 1 583 389.08a148.27 148.27 0 0 1 14.93 0.75z" fill="#FFCF00" /><path d="M487 938.92h-23.53A271.91 271.91 0 0 1 191.56 667a274.56 274.56 0 0 1 3.44-43.56 232 232 0 0 1 119.47-382.53 209.4 209.4 0 0 1 384.38 13c121.72 28.86 208.86 138.27 208.86 264.56a272 272 0 0 1-169 251.77A272 272 0 0 1 487 938.92z m16.83-777.14a168.4 168.4 0 0 0-156 104.82l-4.18 10.4-11.11 2a191 191 0 0 0-101 323.28l7.81 7.78-2.19 10.8a232.83 232.83 0 0 0-4.6 46.13A230.95 230.95 0 0 0 463.47 898H487a231 231 0 0 0 216.66-150.73l3.27-8.83 8.84-3.26a231 231 0 0 0 151-216.73c0-110.64-78.73-206-187.19-226.81l-11.87-2.27-3.75-11.49a168.42 168.42 0 0 0-160.1-116.1z" fill="" /><path d="M515.39 702.4c-98.28 0-178.23-79.92-178.23-178.16s80-178.16 178.23-178.16S693.62 426 693.62 524.24 613.67 702.4 515.39 702.4z m0-315.36c-75.69 0-137.27 61.55-137.27 137.2s61.58 137.2 137.27 137.2 137.27-61.55 137.27-137.2S591.08 387 515.39 387z" fill="" />
  </g>
  <g transform="translate(200, 200) scale(0.1)">
   <path d="M714 762.2h-98.2c-16.6 0-30 13.4-30 30s13.4 30 30 30H714c16.6 0 30-13.4 30-30s-13.4-30-30-30zM487.4 762.2H147.1c-16.6 0-30 13.4-30 30s13.4 30 30 30h340.3c16.6 0 30-13.4 30-30s-13.4-30-30-30z" fill="#33CC99" /><path d="M838.253 130.023l65.548 65.548-57.982 57.983-65.549-65.549z" fill="#FFB89A" /><path d="M743.7 955.9H195.8c-53.7 0-97.4-43.7-97.4-97.4V174.8c0-53.7 43.7-97.4 97.4-97.4H615c16.6 0 30 13.4 30 30s-13.4 30-30 30H195.8c-20.6 0-37.4 16.8-37.4 37.4v683.7c0 20.6 16.8 37.4 37.4 37.4h547.9c20.6 0 37.4-16.8 37.4-37.4v-395c0-16.6 13.4-30 30-30s30 13.4 30 30v395.1c0 53.6-43.7 97.3-97.4 97.3z" fill="#45484C" /><path d="M907.7 122.1l-39.2-39.2c-24-24-65.1-21.9-91.7 4.7L419.5 445 347 643.6l198.6-72.4L903 213.8c12.1-12.1 19.6-27.7 21.1-44 1.8-18.1-4.3-35.5-16.4-47.7zM512.6 519.3L447.5 543l23.7-65.1 264.7-264.7 40.9 41.7-264.2 264.4z m348-347.9l-41.3 41.3-40.9-41.7 40.9-40.9c3.1-3.1 6.2-3.9 7.6-3.9l37.6 37.6c-0.1 1.3-0.9 4.5-3.9 7.6z" fill="#45484C" />
  </g>
</svg>
